HIERARCHY
ROOT Hips
{
	OFFSET 0.00000 0.00000 0.00000
	CHANNELS 6 Xposition Yposition Zposition Zrotation Yrotation Xrotation 
	JOINT LHipJoint
	{
		OFFSET 0 0 0
		CHANNELS 3 Zrotation Yrotation Xrotation
		JOINT LeftHip
		{
			OFFSET 1.24777 -1.64261 0.71711
			CHANNELS 3 Zrotation Yrotation Xrotation
			JOINT LeftKnee
			{
				OFFSET 2.49329 -6.85026 0.00000
				CHANNELS 3 Zrotation Yrotation Xrotation
				JOINT LeftAnkle
				{
					OFFSET 2.36770 -6.50520 0.00000
					CHANNELS 3 Zrotation Yrotation Xrotation
					JOINT LeftToe
					{
						OFFSET 0.14820 -0.40718 2.21395
						CHANNELS 3 Zrotation Yrotation Xrotation
						End Site
						{
							OFFSET 0.00000 -0.00000 1.13491
						}
					}
				}
			}
		}
	}
	JOINT RHipJoint
	{
		OFFSET 0 0 0
		CHANNELS 3 Zrotation Yrotation Xrotation
		JOINT RightHip
		{
			OFFSET -1.18320 -1.64261 0.71711
			CHANNELS 3 Zrotation Yrotation Xrotation
			JOINT RightKnee
			{
				OFFSET -2.46559 -6.77417 0.00000
				CHANNELS 3 Zrotation Yrotation Xrotation
				JOINT RightAnkle
				{
					OFFSET -2.38450 -6.55136 0.00000
					CHANNELS 3 Zrotation Yrotation Xrotation
					JOINT RightToe
					{
						OFFSET -0.17454 -0.47954 2.02925
						CHANNELS 3 Zrotation Yrotation Xrotation
						End Site
						{
							OFFSET -0.00000 -0.00000 1.05076
						}
					}
				}
			}
		}
	}
	JOINT lowerback
	{
		OFFSET 0 0 0
		CHANNELS 3 Zrotation Yrotation Xrotation
		JOINT Chest
		{
			OFFSET -0.02305 1.98660 0.00319
			CHANNELS 3 Zrotation Yrotation Xrotation
			JOINT Chest2
			{
				OFFSET -0.00718 1.99033 -0.00533
				CHANNELS 3 Zrotation Yrotation Xrotation
				JOINT lowerneck
				{
					OFFSET 0 0 0
					CHANNELS 3 Zrotation Yrotation Xrotation
					JOINT Neck
					{
						OFFSET 0.00095 1.61015 0.10698
						CHANNELS 3 Zrotation Yrotation Xrotation
						JOINT Head
						{
							OFFSET -0.01060 1.59924 0.01317
							CHANNELS 3 Zrotation Yrotation Xrotation
							End Site
							{
								OFFSET -0.00458 1.63304 -0.00592
							}
						}
					}
				}
				JOINT LeftCollar
				{
					OFFSET 0 0 0
					CHANNELS 3 Zrotation Yrotation Xrotation
					JOINT LeftShoulder
					{
						OFFSET 3.05381 1.47088 -0.01697
CHANNELS 3 Zrotation Xrotation Yrotation
						JOINT LeftElbow
						{
OFFSET 0 -4.251060 0.000000
CHANNELS 3 Zrotation Xrotation Yrotation
							JOINT LeftWrist
							{
OFFSET 0 -3.275920 0.000000
CHANNELS 3 Zrotation Xrotation Yrotation
								JOINT lhand
								{
									OFFSET 0 0 0
CHANNELS 3 Zrotation Xrotation Yrotation
									JOINT LFingers
									{
OFFSET 0 -0.657810 0.000000
CHANNELS 3 Zrotation Xrotation Yrotation
										End Site
										{
OFFSET 0 -0.530340 0.000000
										}
									}
								}
								JOINT LThumb
								{
OFFSET 0 0.000000 0.000000
CHANNELS 3 Zrotation Xrotation Yrotation
									End Site
									{
OFFSET 0 -0.538440 0.538440
									}
								}
							}
						}
					}
				}
				JOINT RightCollar
				{
					OFFSET 0 0 0
					CHANNELS 3 Zrotation Yrotation Xrotation
					JOINT RightShoulder
					{
						OFFSET -2.83695 1.31619 -0.22674
CHANNELS 3 Zrotation Xrotation Yrotation
						JOINT RightElbow
						{
OFFSET 0 -4.460730 0.000000
CHANNELS 3 Zrotation Xrotation Yrotation
							JOINT RightWrist
							{
OFFSET 0 -3.444160 0.000000
CHANNELS 3 Zrotation Xrotation Yrotation
								JOINT rhand
								{
									OFFSET 0 0 0
CHANNELS 3 Zrotation Xrotation Yrotation
									JOINT RFingers
									{
OFFSET 0 -0.616510 0.000000
CHANNELS 3 Zrotation Xrotation Yrotation
										End Site
										{
OFFSET 0 -0.497050 0.000000
										}
									}
								}
								JOINT RThumb
								{
OFFSET 0 0.000000 0.000000
CHANNELS 3 Zrotation Xrotation Yrotation
									End Site
									{
OFFSET 0 -0.504640 0.504640
									}
								}
							}
						}
					}
				}
			}
		}
	}
}
MOTION
Frames: 12
Frame Time: 0.008333333333333333
-15.517800 17.253700 -18.365300 -2.183900 1.932000 9.411200 0.000000 0.000000 0.000000 -18.577700 -4.170000 -20.484600 2.961900 10.633200 31.052600 1.225200 -8.852300 -19.846900 0.770600 5.605200 15.643200 0.000000 0.000000 0.000000 20.075000 9.316400 -15.951100 -2.470600 -9.784200 28.280800 -0.755900 -6.865000 -20.318600 -0.386600 -3.992900 11.056600 -0.818800 -0.046200 -6.362900 1.862400 -0.061300 -0.630800 2.376600 -0.050100 2.920300 -1.394400 -2.198100 -5.172800 2.816900 -2.650400 -13.105500 1.188700 -1.338800 -3.263500 0.000000 -0.000000 0.000000 3.550000 8.650400 -67.274800 32.136600 -42.655800 12.833300 -27.841100 -10.761600 -12.522800 0.000000 0.000000 0.000000 -7.125000 0.000000 0.000000 -44.346500 38.065200 -10.157000 0.000000 -0.000000 0.000000 -3.838100 8.396100 47.846000 -21.866400 -32.825700 -6.513200 -3.069800 17.262900 13.239700 0.000000 0.000000 0.000000 7.125000 0.000000 -0.000000 21.625700 42.165900 1.594400
-15.519965 17.252305 -18.371665 -2.181562 1.970337 9.366324 0.000000 0.000000 0.000000 -18.564860 -4.066639 -20.500386 2.961107 10.631931 31.048202 1.215259 -9.020843 -19.781233 0.786300 5.660805 15.803226 0.000000 0.000000 0.000000 20.094387 9.278484 -15.946323 -2.475893 -9.793917 28.311873 -0.767021 -6.803434 -20.380183 -0.381056 -3.964266 10.976178 -0.816565 0.000109 -6.334428 1.792887 0.002369 -0.623913 2.308836 -0.017858 2.908449 -1.144043 -2.263094 -4.947158 2.672657 -2.755873 -13.270397 1.106332 -1.399708 -3.364289 0.000000 0.000000 0.000000 3.731446 8.560607 -67.475283 31.904234 -42.470737 12.676169 -27.610039 -8.651605 -11.402379 0.000000 0.000000 0.000000 -7.125000 0.000000 0.000000 -43.608114 37.170778 -11.215092 0.000000 0.000000 0.000000 -3.630556 8.451329 47.526134 -21.804284 -32.755196 -6.479654 -3.622733 17.135067 13.294180 0.000000 0.000000 0.000000 7.125000 0.000000 0.000000 21.174547 42.271707 1.499331
-15.518638 17.255796 -18.379683 -2.211230 1.811153 9.438860 0.000000 0.000000 0.000000 -18.545698 -4.020841 -20.587616 2.948901 10.611880 30.981906 1.210083 -8.960459 -19.735327 0.811376 5.748210 16.055605 0.000000 0.000000 0.000000 20.092704 9.732803 -15.994602 -2.486755 -9.813744 28.375653 -0.727452 -7.273430 -20.358745 -0.316860 -3.615297 9.997210 -0.723688 0.074654 -6.295073 1.705299 0.098740 -0.687599 2.173807 0.032851 2.816510 -0.955855 -2.292882 -4.841415 2.615668 -2.804389 -13.336852 1.058928 -1.431427 -3.408953 0.000000 0.000000 0.000000 3.839638 8.634040 -67.294767 31.791152 -42.380079 12.599838 -28.063925 -9.074039 -11.542581 0.000000 0.000000 0.000000 -7.125000 0.000000 0.000000 -43.941555 37.216567 -11.294841 0.000000 0.000000 0.000000 -3.364752 8.450218 47.248545 -21.656231 -32.586259 -6.399742 -6.308757 17.611865 12.863363 0.000000 0.000000 0.000000 7.125000 0.000000 0.000000 18.737536 42.130100 1.377942
-15.518616 17.258514 -18.385988 -2.228265 1.695880 9.453932 0.000000 0.000000 0.000000 -18.533645 -3.959394 -20.599839 2.933989 10.587327 30.900464 1.203750 -8.919586 -19.681544 0.829296 5.809760 16.233545 0.000000 0.000000 0.000000 20.105926 10.477433 -15.831503 -2.497453 -9.833261 28.438595 -0.679062 -8.050936 -20.516512 -0.262493 -3.295672 9.103076 -0.665335 0.139273 -6.262561 1.620962 0.183634 -0.715497 2.060645 0.076758 2.766176 -0.790086 -2.328874 -4.711804 2.584463 -2.857586 -13.427633 1.024784 -1.465445 -3.466092 0.000000 0.000000 0.000000 3.973930 8.701640 -67.151228 31.711619 -42.316063 12.546249 -28.099448 -9.482779 -11.640992 0.000000 0.000000 0.000000 -7.125000 0.000000 0.000000 -44.014194 37.292903 -11.210308 0.000000 0.000000 0.000000 -3.063372 8.424565 46.884762 -21.486013 -32.391209 -6.308277 -8.619548 18.137630 12.464195 0.000000 0.000000 0.000000 7.125000 0.000000 0.000000 16.627711 41.972707 1.280780
-15.518241 17.260334 -18.392596 -2.253860 1.535082 9.483888 0.000000 0.000000 0.000000 -18.513743 -3.933484 -20.629402 2.925821 10.574014 30.856433 1.204252 -8.811790 -19.676906 0.844547 5.861563 16.383367 0.000000 0.000000 0.000000 20.117213 11.224707 -15.656089 -2.502231 -9.842003 28.466506 -0.641957 -8.683305 -20.696783 -0.232901 -3.106154 8.574566 -0.591643 0.218809 -6.255914 1.532247 0.287480 -0.741671 1.936125 0.130145 2.732123 -0.634833 -2.362067 -4.612374 2.577345 -2.904342 -13.483570 0.999246 -1.496374 -3.505391 0.000000 0.000000 0.000000 4.133366 8.805065 -66.967936 31.676460 -42.287705 12.522594 -27.763451 -9.983460 -11.698773 0.000000 0.000000 0.000000 -7.125000 0.000000 0.000000 -43.853831 37.393769 -10.984264 0.000000 0.000000 0.000000 -2.723790 8.372141 46.458078 -21.294125 -32.170055 -6.205796 -10.102220 18.640664 12.268787 0.000000 0.000000 0.000000 7.125000 0.000000 0.000000 15.290435 41.925449 1.190560
-15.517678 17.261248 -18.399020 -2.279629 1.348358 9.528684 0.000000 0.000000 0.000000 -18.494069 -3.932291 -20.676963 2.922981 10.569311 30.840635 1.209720 -8.668427 -19.709437 0.856710 5.902789 16.502656 0.000000 0.000000 0.000000 20.119011 11.781106 -15.541334 -2.501759 -9.841092 28.463704 -0.624613 -9.024529 -20.830647 -0.226468 -3.063234 8.454849 -0.508636 0.309505 -6.273047 1.435952 0.405753 -0.770566 1.799878 0.190694 2.708649 -0.471861 -2.392874 -4.543237 2.573332 -2.947918 -13.496982 0.971985 -1.525974 -3.524413 0.000000 0.000000 0.000000 4.324395 8.932508 -66.765340 31.665976 -42.279295 12.515518 -27.207916 -10.366676 -11.646095 0.000000 0.000000 0.000000 -7.125000 0.000000 0.000000 -43.504957 37.435435 -10.769928 0.000000 0.000000 0.000000 -2.356812 8.320958 45.987854 -21.107313 -31.953421 -6.106631 -10.641095 19.059722 12.315902 0.000000 0.000000 0.000000 7.125000 0.000000 0.000000 14.835735 42.023318 1.116538
-15.516924 17.261976 -18.405613 -2.304863 1.146115 9.595069 0.000000 0.000000 0.000000 -18.474105 -3.946871 -20.750140 2.922500 10.568500 30.838000 1.216927 -8.501968 -19.756223 0.862155 5.920878 16.554944 0.000000 0.000000 0.000000 20.112522 12.055557 -15.550111 -2.497807 -9.833890 28.440382 -0.618573 -9.089617 -20.830158 -0.225938 -3.059496 8.444382 -0.407978 0.403867 -6.272190 1.327503 0.528203 -0.829876 1.641205 0.253860 2.644714 -0.285962 -2.416646 -4.499448 2.553296 -2.984497 -13.455136 0.934062 -1.552225 -3.520115 0.000000 0.000000 0.000000 4.537064 9.110400 -66.497620 31.670303 -42.282782 12.518468 -26.664027 -10.613787 -11.506023 0.000000 0.000000 0.000000 -7.125000 0.000000 0.000000 -43.112364 37.400904 -10.654566 0.000000 0.000000 0.000000 -1.977006 8.315467 45.534514 -20.946782 -31.766194 -6.021928 -10.703721 19.392372 12.470504 0.000000 0.000000 0.000000 7.125000 0.000000 0.000000 14.823220 42.180780 1.056505
-15.515654 17.263310 -18.413634 -2.337308 0.844898 9.723184 0.000000 0.000000 0.000000 -18.454494 -3.992026 -20.879918 2.922464 10.568464 30.837919 1.229029 -8.203760 -19.836666 0.847496 5.871467 16.411904 0.000000 0.000000 0.000000 20.084892 12.293700 -15.663468 -2.491213 -9.821972 28.402068 -0.611432 -9.055041 -20.728165 -0.220339 -3.021729 8.339259 -0.294925 0.533283 -6.303457 1.209251 0.696960 -0.913919 1.469484 0.340268 2.573017 -0.075476 -2.436929 -4.460564 2.508691 -3.019030 -13.406944 0.883762 -1.577661 -3.513594 0.000000 0.000000 0.000000 4.743821 9.297298 -66.147226 31.675312 -42.286820 12.521829 -26.287697 -10.837546 -11.390542 0.000000 0.000000 0.000000 -7.125000 0.000000 0.000000 -42.829178 37.360533 -10.594823 0.000000 0.000000 0.000000 -1.606491 8.332126 45.129268 -20.821242 -31.619120 -5.955942 -10.714812 19.650527 12.656097 0.000000 0.000000 0.000000 7.125000 0.000000 0.000000 14.864403 42.363694 0.990756
-15.514131 17.265186 -18.423564 -2.386862 0.434833 9.915013 0.000000 0.000000 0.000000 -18.423542 -4.068345 -21.069675 2.922934 10.569252 30.840631 1.248622 -7.701914 -19.975267 0.771264 5.606883 15.648208 0.000000 0.000000 0.000000 20.043698 12.515810 -15.882249 -2.482270 -9.805568 28.349431 -0.606445 -8.902342 -20.540020 -0.208222 -2.937922 8.105871 -0.176082 0.700695 -6.365826 1.091406 0.915657 -1.018958 1.299429 0.451510 2.497456 0.147097 -2.451981 -4.420595 2.446439 -3.048034 -13.374314 0.825793 -1.600408 -3.513533 0.000000 0.000000 0.000000 4.913311 9.483003 -65.680609 31.664442 -42.278058 12.514530 -25.991864 -11.013018 -11.337003 0.000000 0.000000 0.000000 -7.125000 0.000000 0.000000 -42.624758 37.359152 -10.511521 0.000000 0.000000 0.000000 -1.263886 8.357869 44.795654 -20.727579 -31.508984 -5.906933 -10.755550 19.842322 12.901099 0.000000 0.000000 0.000000 7.125000 0.000000 0.000000 14.896623 42.607744 0.901012
-15.512579 17.267181 -18.434285 -2.443645 -0.021535 10.132536 0.000000 0.000000 0.000000 -18.388272 -4.151821 -21.284982 2.923867 10.570827 30.845742 1.270263 -7.085126 -20.141769 0.655578 5.177407 14.415557 0.000000 0.000000 0.000000 19.995558 12.704313 -16.156216 -2.472589 -9.787906 28.292702 -0.604179 -8.663174 -20.302153 -0.194495 -2.839875 7.833293 -0.075548 0.888831 -6.476360 0.983920 1.162397 -1.108876 1.153807 0.575989 2.464913 0.364509 -2.466112 -4.378844 2.380632 -3.075264 -13.378545 0.768295 -1.622042 -3.526953 0.000000 0.000000 0.000000 5.022442 9.624894 -65.102753 31.602734 -42.228123 12.472962 -25.553298 -11.035254 -11.319091 0.000000 0.000000 0.000000 -7.125000 0.000000 0.000000 -42.351068 37.407378 -10.329594 0.000000 0.000000 0.000000 -0.962512 8.358575 44.520686 -20.653021 -31.421102 -5.868010 -10.891516 19.995465 13.182746 0.000000 0.000000 0.000000 7.125000 0.000000 0.000000 14.856593 42.897446 0.789652
-15.511559 17.268689 -18.443626 -2.487102 -0.413698 10.311151 0.000000 0.000000 0.000000 -18.363792 -4.206326 -21.465427 2.924645 10.572041 30.849768 1.287622 -6.546109 -20.289298 0.551609 4.756722 13.216257 0.000000 0.000000 0.000000 19.949837 12.860197 -16.384993 -2.464904 -9.773850 28.247374 -0.604155 -8.436956 -20.100261 -0.186096 -2.778431 7.662544 -0.008743 1.059740 -6.598887 0.889338 1.387705 -1.162278 1.039854 0.689147 2.477608 0.566399 -2.478816 -4.354132 2.321536 -3.099473 -13.398766 0.715604 -1.641697 -3.542754 0.000000 0.000000 0.000000 5.064940 9.698436 -64.439315 31.437200 -42.093807 12.361958 -24.780035 -10.876275 -11.393467 0.000000 0.000000 0.000000 -7.125000 0.000000 0.000000 -41.915218 37.578035 -9.915088 0.000000 0.000000 0.000000 -0.699513 8.339282 44.276444 -20.588561 -31.344914 -5.834443 -11.151407 20.147948 13.479749 0.000000 0.000000 0.000000 7.125000 0.000000 0.000000 14.712523 43.215496 0.663385
-15.510871 17.269157 -18.450835 -2.513463 -0.687079 10.416237 0.000000 0.000000 0.000000 -18.349303 -4.232863 -21.571971 2.925329 10.573158 30.853418 1.298595 -6.195432 -20.390330 0.493207 4.502653 12.495343 0.000000 0.000000 0.000000 19.916461 12.992664 -16.513412 -2.460354 -9.765537 28.220653 -0.602514 -8.294998 -19.958062 -0.191094 -2.815343 7.765088 0.051826 1.183513 -6.634061 0.800393 1.550902 -1.214395 0.928389 0.771366 2.444797 0.751886 -2.482608 -4.372366 2.269392 -3.112143 -13.363881 0.666192 -1.654506 -3.531062 0.000000 0.000000 0.000000 5.045995 9.746525 -63.689201 31.127280 -41.840099 12.154653 -23.435428 -10.504936 -11.576669 0.000000 0.000000 0.000000 -7.125000 0.000000 0.000000 -41.161563 37.912381 -9.175600 0.000000 0.000000 0.000000 -0.460426 8.361122 44.064239 -20.524385 -31.268971 -5.801062 -11.538142 20.336991 13.767276 0.000000 0.000000 0.000000 7.125000 0.000000 0.000000 14.453499 43.538853 0.533134
